<svg width="13" height="12" viewBox="0 0 13 12" fill="none" xmlns="http://www.w3.org/2000/svg">
<path fill-rule="evenodd" clip-rule="evenodd" d="M6.85952 8.74036L6.07739 11.0615C5.76023 12.0012 4.65244 12.3246 3.99708 11.6134C3.85806 11.6491 3.71298 11.6535 3.57214 11.626C3.43129 11.5986 3.29813 11.5402 3.18211 11.4548C3.06608 11.3695 2.97002 11.2593 2.90076 11.1322C2.8315 11.005 2.79072 10.864 2.78132 10.7191C1.91184 10.3077 1.87152 9.14082 2.65813 8.54535L4.59734 7.07593L2.17524 7.04146C1.19376 7.02695 0.548706 6.05958 1.01324 5.20923C0.936931 5.0863 0.888225 4.9479 0.870563 4.80381C0.852901 4.65973 0.866713 4.51348 0.911023 4.37539C0.955333 4.2373 1.02906 4.11076 1.12699 4.00469C1.22492 3.89863 1.34467 3.81564 1.47777 3.76158C1.59558 2.79694 2.67919 2.39829 3.48148 2.97109L5.461 4.38427L4.74427 2.04136C4.45623 1.09486 5.15908 0.167859 6.1074 0.356524C6.19926 0.244936 6.31422 0.155157 6.44416 0.0935466C6.57409 0.031936 6.71582 0 6.85929 0C7.00277 0 7.1445 0.031936 7.27443 0.0935466C7.40437 0.155157 7.51933 0.244936 7.61119 0.356524C8.55862 0.167859 9.26191 1.09486 8.97432 2.04136L8.25759 4.38427L10.2371 2.97063C11.0394 2.39783 12.1226 2.79648 12.2408 3.76158C12.374 3.81552 12.4938 3.89843 12.5917 4.00444C12.6897 4.11046 12.7635 4.23698 12.8078 4.37505C12.8521 4.51313 12.8659 4.65938 12.8482 4.80345C12.8305 4.94753 12.7817 5.0859 12.7054 5.20877C13.1699 6.05958 12.5262 7.0265 11.5434 7.04101L9.1217 7.07593L11.0609 8.54489C11.8466 9.13992 11.8076 10.3073 10.9373 10.7186C10.9279 10.8635 10.8871 11.0046 10.8178 11.1317C10.7486 11.2589 10.6525 11.369 10.5365 11.4544C10.4205 11.5397 10.2873 11.5982 10.1465 11.6256C10.0056 11.653 9.86053 11.6487 9.72151 11.613C9.06705 12.3237 7.95836 12.0012 7.6412 11.0606L6.85952 8.74036Z" fill="#D21E6A"/>
<path fill-rule="evenodd" clip-rule="evenodd" d="M6.85938 8.74076V0H6.90193C7.03819 0.00593849 7.17172 0.040682 7.29392 0.101996C7.41612 0.163311 7.5243 0.249839 7.61149 0.356016C8.54504 0.174607 9.26445 1.08891 8.97328 2.04086L8.25655 4.38376L10.2361 2.97013C11.0384 2.39733 12.1211 2.79597 12.2398 3.76107C12.3729 3.81501 12.4927 3.89792 12.5907 4.00393C12.6887 4.10995 12.7624 4.23647 12.8068 4.37455C12.8511 4.51262 12.8649 4.65887 12.8472 4.80295C12.8295 4.94702 12.7807 5.08539 12.7043 5.20827C13.1693 6.05908 12.5251 7.02599 11.5423 7.0405L9.12066 7.07542L11.0599 8.54439C11.8456 9.13941 11.8062 10.3068 10.9362 10.7181C10.9268 10.863 10.8861 11.004 10.8168 11.1312C10.7475 11.2583 10.6515 11.3685 10.5354 11.4539C10.4194 11.5392 10.2863 11.5977 10.1454 11.6251C10.0046 11.6525 9.85949 11.6482 9.72047 11.6125C9.06601 12.3236 7.95732 12.0007 7.64016 11.0601L6.85938 8.74076Z" fill="#E7629A"/>
<path d="M7.75987 7.23198C8.25931 6.72632 8.25931 5.90649 7.75987 5.40084C7.26042 4.89518 6.45065 4.89518 5.95121 5.40084C5.45176 5.90649 5.45176 6.72632 5.95121 7.23198C6.45065 7.73763 7.26042 7.73763 7.75987 7.23198Z" fill="#FFDA44"/>
<path fill-rule="evenodd" clip-rule="evenodd" d="M6.85938 5.01953C7.19448 5.02588 7.51374 5.16511 7.74851 5.40729C7.98328 5.64946 8.1148 5.97524 8.1148 6.31457C8.1148 6.6539 7.98328 6.97967 7.74851 7.22185C7.51374 7.46402 7.19448 7.60326 6.85938 7.6096V5.01953Z" fill="#FFB655"/>
</svg>
