<svg width="24" height="25" viewBox="0 0 24 25" fill="none" xmlns="http://www.w3.org/2000/svg">
<path d="M12.1555 9.18152L5.11674 17.8534C5.07362 17.9059 5.03986 17.9659 5.01549 18.0296L4.10049 20.4315C3.89799 20.964 4.40424 21.4909 4.88799 21.2453L7.14174 20.0996C7.20549 20.0678 7.26549 20.0209 7.31424 19.9665L15.0167 11.304C15.1499 11.1559 15.2061 10.9459 15.1686 10.7434C15.0317 10.0009 14.4899 8.34902 12.4217 8.99402C12.3186 9.02589 12.2267 9.09339 12.1555 9.18152Z" fill="#BCAAA4"/>
<path d="M7.14163 20.1013L4.88788 21.2469C4.406 21.4925 3.89788 20.9656 4.10038 20.4331L5.01538 18.0312L7.14163 20.1013Z" fill="#BDBDBD"/>
<path d="M12.0006 9.18603C12.9644 8.12853 16.675 4.19478 18.8875 3.22728C19.7256 2.85978 20.7794 3.5029 20.5112 4.54728C20.14 5.9854 14.9556 11.9048 14.9556 11.9048C14.8488 12.0417 14.4437 12.1373 14.3219 12.0867C14.2806 12.0698 14.4344 11.9817 14.4044 11.9329L14.3819 11.841C14.3631 11.766 14.3331 11.6929 14.2919 11.6273C13.7744 10.8117 13.0525 10.2642 12.0981 9.82728C11.9931 9.77853 11.6406 9.7804 11.6406 9.7804C11.6406 9.51415 11.8506 9.35103 12.0006 9.18603Z" fill="black"/>
<path d="M4.2677 20.0449L4.01645 20.6674C3.8402 21.1024 4.28082 21.5318 4.69707 21.3312L5.34957 21.0199L4.2677 20.0449Z" fill="#212121"/>
<path d="M9.76604 15.8848L9.67042 15.7966C9.63891 15.7677 9.61991 15.7276 9.61746 15.6849C9.61501 15.6422 9.6293 15.6002 9.65729 15.5679L13.2967 11.4185C13.3104 11.4029 13.3271 11.3902 13.3458 11.3811C13.3645 11.372 13.3848 11.3667 13.4055 11.3655C13.4262 11.3643 13.447 11.3672 13.4666 11.374C13.4862 11.3809 13.5043 11.3915 13.5198 11.4054L13.6154 11.4935C13.681 11.5535 13.6867 11.6566 13.6285 11.7223L9.98917 15.8735C9.97543 15.8892 9.95869 15.9019 9.93994 15.911C9.92118 15.9201 9.9008 15.9253 9.87999 15.9263C9.85918 15.9274 9.83837 15.9242 9.8188 15.9171C9.79923 15.91 9.78129 15.899 9.76604 15.8848Z" fill="#FAFAFA"/>
<path d="M12.0606 9.0803C13.0244 8.0378 16.855 3.91468 19.0675 2.95843C19.9056 2.59655 20.9594 3.22655 20.6912 4.25405C20.32 5.66968 15.1956 11.6003 15.1956 11.6003C15.0531 11.7803 14.7644 11.7653 14.6462 11.5703C14.1212 10.7022 13.3112 10.0272 12.3419 9.64655L12.1825 9.58468C11.9706 9.5003 11.9087 9.24343 12.0606 9.0803Z" fill="#795548"/>
<path d="M17.009 9.83338C18.2671 8.31651 19.2909 7.25526 20.4515 5.44401C20.5565 5.27901 20.8152 5.51901 20.714 5.69338C19.8646 7.19338 17.8396 9.49401 17.3202 10.0865C17.189 10.2346 16.8984 9.96651 17.009 9.83338Z" fill="black"/>
<path d="M20.6666 5.80134C20.5729 5.93071 20.3891 5.95884 20.2598 5.86509L19.9785 5.66071C19.9164 5.615 19.8748 5.5466 19.8629 5.4704C19.851 5.39419 19.8696 5.31636 19.9148 5.25384C20.0085 5.12446 20.1923 5.09634 20.3216 5.19009L20.6029 5.39446C20.7341 5.48821 20.7623 5.67196 20.6666 5.80134Z" fill="black"/>
<path d="M5.01562 18.0298C5.01562 18.0298 5.0475 17.9566 5.0625 17.9341C5.07375 17.9135 5.11688 17.8535 5.11688 17.8535L7.31437 19.9666C7.31437 19.9666 7.25437 20.0266 7.22812 20.0454C7.20375 20.0641 7.14188 20.0998 7.14188 20.0998L5.01562 18.0298Z" fill="white"/>
</svg>
