<svg width="16" height="17" viewBox="0 0 16 17" fill="none" xmlns="http://www.w3.org/2000/svg">
<path d="M7.93073 15.1673L10.9641 7.16732H12.3641L15.3974 15.1673H13.9974L13.2807 13.134H10.0474L9.33073 15.1673H7.93073ZM2.66406 13.1673L1.73073 12.234L5.0974 8.86732C4.70851 8.47843 4.35573 8.03398 4.03906 7.53398C3.7224 7.03398 3.43073 6.46732 3.16406 5.83398H4.56406C4.78628 6.26732 5.00851 6.6451 5.23073 6.96732C5.45295 7.28954 5.71962 7.61176 6.03073 7.93398C6.3974 7.56732 6.77795 7.05343 7.1724 6.39232C7.56684 5.73121 7.86406 5.10065 8.06406 4.50065H0.664062V3.16732H5.33073V1.83398H6.66406V3.16732H11.3307V4.50065H9.3974C9.16406 5.30065 8.81406 6.12287 8.3474 6.96732C7.88073 7.81176 7.41962 8.45621 6.96406 8.90065L8.56406 10.534L8.06406 11.9007L6.03073 9.81732L2.66406 13.1673ZM10.4641 11.9673H12.8641L11.6641 8.56732L10.4641 11.9673Z" fill="#0C1015"/>
</svg>
